<mxfile host="app.diagrams.net" modified="2023-12-20T09:01:11.940Z" agent="Mozilla/5.0 (Windows NT 10.0; Win64; x64) AppleWebKit/537.36 (KHTML, like Gecko) Chrome/120.0.0.0 Safari/537.36" version="22.1.11" etag="pA7GvsS1UIUslvNX8w4N" type="github">
  <diagram name="Page-1" id="7OXoDj_iCPcgdsHKNg8W">
    <mxGraphModel>
      <root>
        <mxCell id="0" />
        <mxCell id="1" parent="0" />
      </root>
    </mxGraphModel>
  </diagram>
</mxfile>
